<svg width="28" height="28" viewBox="0 0 28 28" fill="none" xmlns="http://www.w3.org/2000/svg">
<path id="Vector" d="M14 4.82354e-08C11.2311 4.82354e-08 8.52431 0.821086 6.22202 2.35942C3.91973 3.89776 2.12532 6.08426 1.06569 8.64243C0.00606598 11.2006 -0.271181 14.0155 0.269012 16.7313C0.809205 19.447 2.14258 21.9416 4.10051 23.8995C6.05845 25.8574 8.55301 27.1908 11.2687 27.731C13.9845 28.2712 16.7994 27.9939 19.3576 26.9343C21.9157 25.8747 24.1022 24.0803 25.6406 21.778C27.1789 19.4757 28 16.7689 28 14C28.0002 12.1614 27.6381 10.3409 26.9346 8.64225C26.2311 6.94362 25.1999 5.40021 23.8998 4.10016C22.5998 2.80011 21.0564 1.76889 19.3578 1.06538C17.6591 0.361864 15.8386 -0.00015257 14 4.82354e-08ZM18.4513 21.2135C18.3989 21.3441 18.3192 21.4621 18.2175 21.5594C18.1158 21.6567 17.9944 21.7312 17.8616 21.7778C17.7287 21.8244 17.5875 21.842 17.4472 21.8296C17.307 21.8171 17.1711 21.7748 17.0485 21.7056L13.248 18.7524L10.8087 21.0028C10.7521 21.0446 10.6859 21.0715 10.6162 21.0811C10.5465 21.0906 10.4755 21.0824 10.4097 21.0573L10.8773 16.8735L10.8923 16.8853L10.9019 16.8027C10.9019 16.8027 17.7409 10.5762 18.0195 10.3109C18.3015 10.0463 18.2085 9.98894 18.2085 9.98894C18.2245 9.6662 17.7023 9.98894 17.7023 9.98894L8.6408 15.8186L4.86712 14.5334C4.86712 14.5334 4.28752 14.3255 4.23292 13.8684C4.17552 13.4148 4.88601 13.1684 4.88601 13.1684L19.8898 7.20788C19.8898 7.20788 21.1232 6.65836 21.1232 7.5684L18.4513 21.2135Z" fill="#FA98C8"/>
</svg>
